<svg width="20" height="20" viewBox="0 0 20 20" fill="none" xmlns="http://www.w3.org/2000/svg">
<path fill-rule="evenodd" clip-rule="evenodd" d="M12.4859 19.3121C11.7501 19.7606 10.8851 20 10.0001 20C9.11523 20 8.25013 19.7606 7.51439 19.3121C5.85709 18.3946 4.18305 17.5039 2.49225 16.64C1.70315 16.2735 1.04805 15.7054 0.606807 15.0051C0.165567 14.3047 -0.0427387 13.5025 0.00728944 12.696V11.928C0.205968 12.3019 0.47613 12.6404 0.80509 12.9277C3.0499 14.7639 4.18197 11.7595 4.82344 10.2127C4.82667 10.2127 4.88308 10.0534 5.11355 9.61349C5.12781 9.55576 5.16209 9.50368 5.21132 9.46508C5.26054 9.42653 5.32208 9.40341 5.38683 9.39923C5.45158 9.39505 5.51609 9.41 5.57079 9.44183C5.6255 9.47373 5.66749 9.52081 5.69055 9.57618C5.82819 9.91161 6.05287 10.48 6.30881 11.0927C6.73336 12.11 7.04407 13.3396 7.81316 13.8271C8.56361 14.3023 9.74561 14.1799 10.2446 13.6025C11.1968 12.4999 11.3274 11.5314 11.7077 9.61408C11.8081 8.99424 11.952 8.38093 12.1387 7.77792C12.2322 7.41625 12.4768 6.86643 12.719 6.82383C13.1615 6.74533 13.3985 7.55713 13.6257 8.13454C14.2426 9.70317 14.4786 11.7872 15.4805 12.5155C15.8221 12.7459 16.2341 12.8733 16.6588 12.88C17.0837 12.8867 17.5002 12.7724 17.8504 12.5529C18.5454 12.0753 19.3557 10.687 19.9926 9.69464V12.6952C20.0429 13.5017 19.8346 14.3042 19.3934 15.0047C18.9522 15.7052 18.297 16.2734 17.5077 16.64C15.8171 17.5039 14.1432 18.3946 12.4859 19.3121ZM16.4865 11.6931C15.9956 11.5044 15.7848 10.9663 15.641 10.495C15.1939 9.02101 14.4806 6.18963 12.8798 5.90822C11.9601 5.74623 11.3809 6.658 11.1694 7.16314C10.6288 8.4542 10.4161 9.67581 9.91232 11.6196C9.79368 12.0794 9.35529 13.055 9.00652 13.1723C8.44949 13.3593 8.02529 12.3873 7.91439 12.0677C7.52761 10.9504 6.73465 8.95546 5.70957 8.60326C4.82892 8.30096 4.4276 8.95605 4.2055 9.25893C3.65752 10.0066 2.73272 12.4105 2.1035 12.442C1.05265 12.4949 0.868916 10.6779 0.0427474 10.1392C0.0337218 10.1333 0.0169598 10.1307 0.00728944 10.1254V7.30279C-0.0424002 6.49652 0.166063 5.69454 0.607279 4.99447C1.0485 4.2944 1.70341 3.72649 2.49225 3.35995C4.18305 2.49611 5.85709 1.60552 7.51439 0.688168C8.25007 0.239495 9.11516 0 10.0001 0C10.8851 0 11.7502 0.239495 12.4859 0.688168C14.1432 1.60493 15.8171 2.49552 17.5077 3.35995C18.2968 3.72659 18.9519 4.29473 19.3931 4.99509C19.8344 5.69545 20.0426 6.49776 19.9926 7.30426V7.74879C19.0534 8.85406 18.0957 10.2247 17.517 10.963C17.285 11.2595 17.1199 11.9366 16.4865 11.6931Z" fill="white"/>
</svg>
