<svg width="23" height="23" viewBox="0 0 23 23" fill="none" xmlns="http://www.w3.org/2000/svg">
<path d="M11.125 0.5C8.20762 0.5 5.40973 1.65893 3.34683 3.72183C1.28393 5.78473 0.125 8.58262 0.125 11.5C0.125 14.4174 1.28393 17.2153 3.34683 19.2782C5.40973 21.3411 8.20762 22.5 11.125 22.5C14.0424 22.5 16.8403 21.3411 18.9032 19.2782C20.9661 17.2153 22.125 14.4174 22.125 11.5C22.125 8.58262 20.9661 5.78473 18.9032 3.72183C16.8403 1.65893 14.0424 0.5 11.125 0.5ZM16.17 16.366C16.1231 16.4429 16.0614 16.5098 15.9886 16.5629C15.9158 16.6159 15.8333 16.6541 15.7457 16.6753C15.6582 16.6965 15.5673 16.7002 15.4783 16.6862C15.3893 16.6723 15.3039 16.6409 15.227 16.594C12.644 15.015 9.393 14.659 5.564 15.534C5.3886 15.5695 5.20625 15.5351 5.05586 15.4381C4.90548 15.3411 4.79895 15.1892 4.75903 15.0147C4.7191 14.8403 4.74893 14.6571 4.84215 14.5043C4.93537 14.3516 5.0846 14.2413 5.258 14.197C9.448 13.239 13.043 13.651 15.942 15.423C16.0189 15.4699 16.0858 15.5316 16.1389 15.6044C16.1919 15.6772 16.2301 15.7597 16.2513 15.8473C16.2725 15.9348 16.2762 16.0257 16.2622 16.1147C16.2483 16.2037 16.2169 16.2891 16.17 16.366ZM17.516 13.371C17.3969 13.5648 17.2057 13.7035 16.9844 13.7563C16.7631 13.8092 16.5299 13.7721 16.336 13.653C13.38 11.836 8.872 11.309 5.375 12.371C5.23963 12.4139 5.09571 12.4224 4.95621 12.3958C4.81672 12.3693 4.68602 12.3084 4.57591 12.2187C4.4658 12.129 4.37973 12.0134 4.32546 11.8821C4.27118 11.7509 4.25041 11.6083 4.265 11.467C4.28208 11.2973 4.34933 11.1366 4.45816 11.0054C4.56698 10.8741 4.71245 10.7782 4.876 10.73C8.872 9.518 13.838 10.105 17.233 12.192C17.329 12.2508 17.4125 12.3279 17.4787 12.419C17.5449 12.5101 17.5925 12.6134 17.6188 12.7229C17.6451 12.8323 17.6496 12.9459 17.6319 13.0572C17.6143 13.1684 17.5749 13.275 17.516 13.371ZM17.632 10.252C14.086 8.146 8.237 7.952 4.852 8.98C4.5929 9.05246 4.31573 9.02056 4.07986 8.89114C3.84399 8.76171 3.6682 8.54506 3.59013 8.28759C3.51207 8.03013 3.53795 7.75232 3.66222 7.51371C3.7865 7.27509 3.99929 7.09463 4.255 7.011C8.141 5.831 14.6 6.059 18.682 8.482C18.9167 8.62124 19.0865 8.84802 19.154 9.11244C19.2215 9.37687 19.1812 9.65728 19.042 9.892C18.9028 10.1267 18.676 10.2965 18.4116 10.364C18.1471 10.4315 17.8667 10.3912 17.632 10.252Z" fill="white"/>
</svg>
