<svg width="25" height="25" viewBox="0 0 25 25" fill="none" xmlns="http://www.w3.org/2000/svg">
<g clip-path="url(#clip0_1_274)">
<path d="M15.9761 11.058C15.9761 13.681 13.8161 15.808 11.1531 15.808C8.4891 15.808 6.3291 13.681 6.3291 11.058C6.3291 8.43498 8.4891 6.30798 11.1531 6.30798C13.8171 6.30798 15.9761 8.43498 15.9761 11.058Z" fill="white"/>
<path d="M1.74609 11.058C1.74609 5.91802 5.97209 1.77802 11.1531 1.77802C16.3331 1.77802 20.5601 5.91802 20.5601 11.058C20.5621 13.1787 19.828 15.2343 18.4831 16.874L22.8271 21.218C23.0093 21.4066 23.11 21.6592 23.1078 21.9214C23.1055 22.1836 23.0003 22.4344 22.8149 22.6198C22.6295 22.8052 22.3787 22.9104 22.1165 22.9127C21.8543 22.915 21.6017 22.8142 21.4131 22.632L17.0601 18.279C15.3817 19.6154 13.2986 20.3412 11.1531 20.337C5.97309 20.337 1.74609 16.198 1.74609 11.058ZM11.1531 3.77802C7.04809 3.77802 3.74609 7.05201 3.74609 11.058C3.74609 15.064 7.04809 18.337 11.1531 18.337C15.2581 18.337 18.5601 15.064 18.5601 11.057C18.5601 7.05202 15.2581 3.77802 11.1531 3.77802Z" fill="white"/>
</g>
<defs>
<clipPath id="clip0_1_274">
<rect width="24" height="24" fill="white" transform="translate(0.620117 0.5)"/>
</clipPath>
</defs>
</svg>
