<svg width="25" height="25" viewBox="0 0 25 25" fill="none" xmlns="http://www.w3.org/2000/svg">
<g clip-path="url(#clip0_1_373)">
<path d="M12.125 1.5C9.20762 1.5 6.40973 2.65893 4.34683 4.72183C2.28393 6.78473 1.125 9.58262 1.125 12.5C1.125 15.4174 2.28393 18.2153 4.34683 20.2782C6.40973 22.3411 9.20762 23.5 12.125 23.5C15.0424 23.5 17.8403 22.3411 19.9032 20.2782C21.9661 18.2153 23.125 15.4174 23.125 12.5C23.125 9.58262 21.9661 6.78473 19.9032 4.72183C17.8403 2.65893 15.0424 1.5 12.125 1.5ZM17.17 17.366C17.1231 17.4429 17.0614 17.5098 16.9886 17.5629C16.9158 17.6159 16.8333 17.6541 16.7457 17.6753C16.6582 17.6965 16.5673 17.7002 16.4783 17.6862C16.3893 17.6723 16.3039 17.6409 16.227 17.594C13.644 16.015 10.393 15.659 6.564 16.534C6.3886 16.5695 6.20625 16.5351 6.05586 16.4381C5.90548 16.3411 5.79895 16.1892 5.75903 16.0147C5.7191 15.8403 5.74893 15.6571 5.84215 15.5043C5.93537 15.3516 6.0846 15.2413 6.258 15.197C10.448 14.239 14.043 14.651 16.942 16.423C17.0189 16.4699 17.0858 16.5316 17.1389 16.6044C17.1919 16.6772 17.2301 16.7597 17.2513 16.8473C17.2725 16.9348 17.2762 17.0257 17.2622 17.1147C17.2483 17.2037 17.2169 17.2891 17.17 17.366ZM18.516 14.371C18.3969 14.5648 18.2057 14.7035 17.9844 14.7563C17.7631 14.8092 17.5299 14.7721 17.336 14.653C14.38 12.836 9.872 12.309 6.375 13.371C6.23962 13.4139 6.09571 13.4224 5.95621 13.3958C5.81672 13.3693 5.68603 13.3084 5.57591 13.2187C5.4658 13.129 5.37973 13.0134 5.32546 12.8821C5.27118 12.7509 5.25041 12.6083 5.265 12.467C5.28208 12.2973 5.34933 12.1366 5.45816 12.0054C5.56698 11.8741 5.71245 11.7782 5.876 11.73C9.872 10.518 14.838 11.105 18.233 13.192C18.329 13.2508 18.4125 13.3279 18.4787 13.419C18.5449 13.5101 18.5925 13.6134 18.6188 13.7229C18.6451 13.8323 18.6496 13.9459 18.6319 14.0572C18.6143 14.1684 18.5749 14.275 18.516 14.371ZM18.632 11.252C15.086 9.146 9.237 8.952 5.852 9.98C5.5929 10.0525 5.31573 10.0206 5.07986 9.89114C4.84399 9.76171 4.6682 9.54506 4.59013 9.28759C4.51207 9.03013 4.53795 8.75232 4.66222 8.51371C4.7865 8.27509 4.99929 8.09463 5.255 8.011C9.141 6.831 15.6 7.059 19.682 9.482C19.9167 9.62124 20.0865 9.84802 20.154 10.1124C20.2215 10.3769 20.1812 10.6573 20.042 10.892C19.9028 11.1267 19.676 11.2965 19.4116 11.364C19.1471 11.4315 18.8667 11.3912 18.632 11.252Z" fill="#B3B3B3"/>
</g>
<defs>
<clipPath id="clip0_1_373">
<rect width="24" height="24" fill="white" transform="translate(0.125 0.5)"/>
</clipPath>
</defs>
</svg>
