<svg width="25" height="25" viewBox="0 0 25 25" fill="none" xmlns="http://www.w3.org/2000/svg">
<path d="M13.375 3.74702C13.223 3.65925 13.0505 3.61305 12.875 3.61305C12.6995 3.61305 12.527 3.65925 12.375 3.74702L4.875 8.07702V20.5H9.375V14.5C9.375 14.2348 9.48036 13.9805 9.66789 13.7929C9.85543 13.6054 10.1098 13.5 10.375 13.5H15.375C15.6402 13.5 15.8946 13.6054 16.0821 13.7929C16.2696 13.9805 16.375 14.2348 16.375 14.5V20.5H20.875V8.07702L13.375 3.74702ZM11.375 2.01502C11.8311 1.75172 12.3484 1.6131 12.875 1.6131C13.4016 1.6131 13.9189 1.75172 14.375 2.01502L21.875 6.34502C22.179 6.52055 22.4315 6.77302 22.607 7.07705C22.7826 7.38108 22.875 7.72596 22.875 8.07702V21.5C22.875 21.7652 22.7696 22.0196 22.5821 22.2071C22.3946 22.3947 22.1402 22.5 21.875 22.5H15.375C15.1098 22.5 14.8554 22.3947 14.6679 22.2071C14.4804 22.0196 14.375 21.7652 14.375 21.5V15.5H11.375V21.5C11.375 21.7652 11.2696 22.0196 11.0821 22.2071C10.8946 22.3947 10.6402 22.5 10.375 22.5H3.875C3.60978 22.5 3.35543 22.3947 3.16789 22.2071C2.98036 22.0196 2.875 21.7652 2.875 21.5V8.07702C2.87501 7.72596 2.96743 7.38108 3.14296 7.07705C3.3185 6.77302 3.57097 6.52055 3.875 6.34502L11.375 2.01502Z" fill="#B3B3B3"/>
</svg>
