<svg width="25" height="25" viewBox="0 0 25 25" fill="none" xmlns="http://www.w3.org/2000/svg">
<g clip-path="url(#clip0_1_367)">
<path d="M14.865 2.634C15.017 2.54623 15.1895 2.50003 15.365 2.50003C15.5405 2.50003 15.713 2.54623 15.865 2.634L21.865 6.098C22.017 6.18577 22.1432 6.312 22.231 6.46401C22.3188 6.61603 22.365 6.78847 22.365 6.964V21.5C22.365 21.7652 22.2596 22.0196 22.0721 22.2071C21.8846 22.3946 21.6302 22.5 21.365 22.5H15.365C15.0998 22.5 14.8454 22.3946 14.6579 22.2071C14.4703 22.0196 14.365 21.7652 14.365 21.5V3.5C14.365 3.32447 14.4112 3.15203 14.499 3.00001C14.5867 2.848 14.713 2.72177 14.865 2.634ZM16.365 5.232V20.5H20.365V7.541L16.365 5.232ZM3.36499 22.5C3.09977 22.5 2.84542 22.3946 2.65788 22.2071C2.47035 22.0196 2.36499 21.7652 2.36499 21.5V3.5C2.36499 3.23478 2.47035 2.98043 2.65788 2.79289C2.84542 2.60536 3.09977 2.5 3.36499 2.5C3.63021 2.5 3.88456 2.60536 4.0721 2.79289C4.25963 2.98043 4.36499 3.23478 4.36499 3.5V21.5C4.36499 21.7652 4.25963 22.0196 4.0721 22.2071C3.88456 22.3946 3.63021 22.5 3.36499 22.5ZM9.36499 22.5C9.09977 22.5 8.84542 22.3946 8.65788 22.2071C8.47035 22.0196 8.36499 21.7652 8.36499 21.5V3.5C8.36499 3.23478 8.47035 2.98043 8.65788 2.79289C8.84542 2.60536 9.09977 2.5 9.36499 2.5C9.63021 2.5 9.88456 2.60536 10.0721 2.79289C10.2596 2.98043 10.365 3.23478 10.365 3.5V21.5C10.365 21.7652 10.2596 22.0196 10.0721 22.2071C9.88456 22.3946 9.63021 22.5 9.36499 22.5Z" fill="#B3B3B3"/>
</g>
<defs>
<clipPath id="clip0_1_367">
<rect width="24" height="24" fill="white" transform="translate(0.36499 0.5)"/>
</clipPath>
</defs>
</svg>
