<svg xmlns="http://www.w3.org/2000/svg" fill="none" viewBox="0 0 26 33" height="33" width="26">
<path fill="#1ED760" d="M7.94613 0.649877C7.92783 0.471974 7.84421 0.307176 7.71144 0.18736C7.57867 0.0675429 7.40618 0.0012207 7.22734 0.0012207C7.04849 0.0012207 6.87601 0.0675429 6.74323 0.18736C6.61046 0.307176 6.52684 0.471974 6.50854 0.649877C6.41863 1.58154 6.01346 3.04404 5.09046 4.31804C4.18154 5.57038 2.78079 6.63638 0.649877 6.86063C0.471974 6.87892 0.307176 6.96255 0.18736 7.09532C0.0675429 7.22809 0.0012207 7.40058 0.0012207 7.57942C0.0012207 7.75826 0.0675429 7.93075 0.18736 8.06352C0.307176 8.19629 0.471974 8.27991 0.649877 8.29821C2.78079 8.52246 4.18154 9.58738 5.09046 10.8408C6.01238 12.1148 6.41971 13.5784 6.50638 14.509C6.51865 14.6915 6.59983 14.8626 6.73348 14.9876C6.86714 15.1125 7.04328 15.1821 7.22625 15.1821C7.40923 15.1821 7.58537 15.1125 7.71902 14.9876C7.85267 14.8626 7.93385 14.6915 7.94613 14.509C8.03279 13.5773 8.44013 12.1148 9.36204 10.8408C10.271 9.58846 11.6717 8.52246 13.8026 8.29713C13.9795 8.27767 14.143 8.19361 14.2618 8.06108C14.3805 7.92854 14.4462 7.75684 14.4462 7.57888C14.4462 7.40092 14.3805 7.22922 14.2618 7.09668C14.143 6.96414 13.9795 6.88009 13.8026 6.86063C11.6717 6.63638 10.271 5.57038 9.36096 4.31804C8.44121 3.04404 8.03388 1.58046 7.94613 0.649877ZM20.9234 7.35138C20.7202 7.1481 20.6062 6.87245 20.6063 6.58508C20.6064 6.2977 20.7206 6.02214 20.9239 5.819C21.1272 5.61587 21.4028 5.50181 21.6902 5.50191C21.9776 5.50201 22.2532 5.61627 22.4563 5.81954L25.9349 9.29813L22.4552 12.7767C22.2509 12.974 21.9772 13.0832 21.6932 13.0808C21.4091 13.0783 21.1374 12.9644 20.9366 12.7635C20.7357 12.5627 20.6218 12.2909 20.6193 12.0069C20.6168 11.7228 20.726 11.4492 20.9234 11.2449L21.7868 10.3815H20.853C20.2213 10.3816 19.5973 10.5199 19.0246 10.7865C18.452 11.0532 17.9446 11.4418 17.538 11.9252L10.9058 19.8065C10.4687 20.3315 9.96507 20.7973 9.40754 21.192C8.85504 21.5734 8.13138 21.9341 7.34379 21.9341V19.7675C7.49221 19.7675 7.77713 19.684 8.17579 19.4089C8.55496 19.1467 8.93413 18.7838 9.24829 18.4111L15.8783 10.5299C16.4885 9.80462 17.25 9.2216 18.1094 8.82169C18.9687 8.42177 19.9051 8.21464 20.853 8.21479H21.7879L20.9234 7.35138Z"></path>
<path fill="#1ED760" d="M20.853 21.2159C19.9053 21.2159 18.9691 21.0087 18.11 20.6088C17.2508 20.2088 16.4895 19.6259 15.8794 18.9008L15.0441 17.9074L15.0376 17.8998L15.0344 17.8965L15.017 17.8749C14.9957 17.8493 14.974 17.824 14.952 17.799C14.9119 17.7534 14.8692 17.71 14.8242 17.669L16.2206 16.0115C16.3862 16.1538 16.5385 16.3108 16.6756 16.4806L16.706 16.5185L16.7135 16.5261L17.5369 17.5055C17.9435 17.9888 18.4509 18.3775 19.0236 18.6441C19.5962 18.9108 20.2202 19.0491 20.8519 19.0492H21.7619L20.8974 18.1858C20.6941 17.9827 20.5798 17.7071 20.5797 17.4197C20.5796 17.1323 20.6937 16.8567 20.8968 16.6534C21.1 16.4501 21.3755 16.3359 21.6629 16.3358C21.9503 16.3357 22.2259 16.4497 22.4292 16.6529L25.9089 20.1325L22.4292 23.6111C22.3293 23.7146 22.2097 23.7971 22.0776 23.8539C21.9454 23.9107 21.8032 23.9406 21.6594 23.9418C21.5156 23.9431 21.3729 23.9157 21.2398 23.8612C21.1066 23.8067 20.9857 23.7263 20.8839 23.6246C20.7822 23.5228 20.7018 23.4019 20.6473 23.2687C20.5928 23.1356 20.5654 22.993 20.5667 22.8491C20.5679 22.7053 20.5978 22.5631 20.6546 22.4309C20.7114 22.2988 20.7939 22.1792 20.8974 22.0793L21.7608 21.2159H20.853Z"></path>
<circle fill="#1ED760" r="2" cy="31" cx="13"></circle>
</svg>
