<svg width="153" height="167" viewBox="0 0 153 167" fill="none" xmlns="http://www.w3.org/2000/svg">
<path fill-rule="evenodd" clip-rule="evenodd" d="M95.5169 161.256C89.8885 165.001 83.271 167 76.501 167C69.7315 167 63.1135 165.001 57.4851 161.256C44.8067 153.595 32.0004 146.157 19.0657 138.944C13.0291 135.884 8.01755 131.14 4.64208 125.293C1.26659 119.445 -0.326951 112.746 0.0557642 106.012V99.5989C1.57565 102.721 3.64239 105.547 6.15894 107.946C23.3318 123.278 31.9921 98.1921 36.8993 85.2763C36.924 85.2763 37.3556 83.9457 39.1187 80.2726C39.2278 79.7906 39.49 79.3557 39.8666 79.0334C40.2432 78.7115 40.714 78.5184 41.2093 78.4835C41.7046 78.4487 42.1981 78.5735 42.6166 78.8393C43.0351 79.1056 43.3563 79.4987 43.5327 79.9611C44.5856 82.762 46.3044 87.5077 48.2624 92.6244C51.5102 101.119 53.8871 111.386 59.7707 115.457C65.5117 119.424 74.554 118.402 78.3716 113.581C85.6558 104.374 86.6548 96.2871 89.5642 80.2776C90.3317 75.1019 91.4328 69.9808 92.8612 64.9456C93.5763 61.9257 95.4478 57.3347 97.3001 56.979C100.686 56.3235 102.498 63.102 104.236 67.9234C108.956 81.0215 110.762 98.4231 118.425 104.504C121.039 106.428 124.191 107.492 127.44 107.548C130.69 107.604 133.877 106.649 136.555 104.816C141.872 100.829 148.071 89.2363 152.944 80.9502V106.005C153.328 112.739 151.735 119.44 148.36 125.289C144.984 131.138 139.972 135.883 133.934 138.944C121.001 146.157 108.195 153.595 95.5169 161.256ZM126.122 97.6374C122.366 96.0615 120.754 91.5684 119.654 87.633C116.234 75.3255 110.776 51.6834 98.5305 49.3337C91.495 47.981 87.0639 55.5943 85.4461 59.8122C81.3106 70.5925 79.6834 80.793 75.8293 97.0237C74.9216 100.863 71.568 109.009 68.8999 109.989C64.6386 111.55 61.3935 103.434 60.5451 100.765C57.5862 91.4357 51.52 74.7781 43.6782 71.8372C36.9413 69.313 33.8711 74.783 32.1721 77.3121C27.9801 83.555 20.9053 103.628 16.0918 103.891C8.05279 104.332 6.64721 89.1602 0.327018 84.6626C0.257972 84.6135 0.129743 84.5913 0.0557642 84.5471V60.9783C-0.324362 54.2459 1.27038 47.5494 4.64568 41.7038C8.021 35.8582 13.0311 31.1162 19.0657 28.0556C32.0004 20.8425 44.8067 13.4061 57.4851 5.7462C63.113 1.99979 69.731 0 76.501 0C83.271 0 89.889 1.99979 95.5169 5.7462C108.195 13.4011 121.001 20.8376 133.934 28.0556C139.97 31.1171 144.982 35.861 148.357 41.709C151.733 47.557 153.326 54.2563 152.944 60.9906V64.7024C145.758 73.9314 138.432 85.3766 134.005 91.5414C132.23 94.0164 130.968 99.6702 126.122 97.6374Z" fill="url(#paint0_linear_1_89)"/>
<defs>
<linearGradient id="paint0_linear_1_89" x1="137" y1="14" x2="22" y2="133" gradientUnits="userSpaceOnUse">
<stop stop-color="#BD6DFD"/>
<stop offset="1" stop-color="#E3B9FF"/>
</linearGradient>
</defs>
</svg>
